<svg width="359" height="351.275" xmlns="http://www.w3.org/2000/svg">

 <g>
  <title>background</title>
  <rect fill="none" id="canvas_background" height="402" width="582" y="-1" x="-1"/>
 </g>
 <g>
  <title>Layer 1</title>
  <path id="svg_2" fill="#ffffff" stroke="#787474" stroke-width="9" stroke-linecap="round" stroke-linejoin="round" stroke-miterlimit="10" d="m265.83,135.456c51.814,19.541 88.67,69.583 88.67,128.233l0,53.527l0,11.559c0,9.941 -8.059,18 -18,18l-314,0c-9.941,0 -18,-8.059 -18,-18l0,-7.059l0,-58.027c0,-56.648 39.717,-109.291 88.306,-128.321"/>
  <path id="svg_3" fill="#ffffff" stroke="#787474" stroke-width="9" stroke-linecap="round" stroke-linejoin="round" stroke-miterlimit="10" d="m130.346,127.519c4.976,-0.548 10.032,-0.829 15.155,-0.829l76,0c1.533,0 3.063,0.024 4.584,0.075"/>
  <path id="svg_4" fill="#ffffff" stroke="#787474" stroke-width="9" stroke-linecap="round" stroke-linejoin="round" stroke-miterlimit="10" d="m274.575,159.499c31.856,17.066 55.114,47.246 61.937,82.976"/>
  <path id="svg_5" fill="#ffffff" stroke="#787474" stroke-width="9" stroke-linecap="round" stroke-linejoin="round" stroke-miterlimit="10" d="m123.032,147.409c8.806,-1.91 17.965,-2.917 27.369,-2.917l68.923,0c5.299,0 10.52,0.32 15.645,0.941"/>
  <path id="svg_6" fill="#ffffff" stroke="#787474" stroke-width="9" stroke-linecap="round" stroke-linejoin="round" stroke-miterlimit="10" d="m22.672,245.535c5.653,-34.645 30.11,-68.135 60.22,-82.549"/>
  <line id="svg_7" fill="none" stroke="#787474" stroke-width="9" stroke-linecap="round" stroke-linejoin="round" stroke-miterlimit="10" y2="230.566" y1="230.566" x2="122.383" x1="228.883"/>
  <line id="svg_8" fill="none" stroke="#787474" stroke-width="9" stroke-linecap="round" stroke-linejoin="round" stroke-miterlimit="10" y2="254.065" y1="241.732" x2="130.883" x1="130.883"/>
  <path id="svg_9" fill="#ffffff" stroke="#787474" stroke-width="9" stroke-linecap="round" stroke-linejoin="round" stroke-miterlimit="10" d="m178.383,20.066c-8.561,0 -15.5,6.939 -15.5,15.5c0,0 0.55,10.433 -1.667,23.833c-3.583,21.667 -35.333,62.667 -51.333,126l-33.305,0c1.341,-5.006 2.774,-10.687 4.305,-15.848c25.5,-85.984 66.5,-118.234 66.5,-133.984s13.879,-31 31,-31"/>
  <path id="svg_10" fill="#ffffff" stroke="#787474" stroke-width="9" stroke-linecap="round" stroke-linejoin="round" stroke-miterlimit="10" d="m103.883,346.775l-33.305,0c0,0 -1,-37.625 -1,-62.605c0,-24.978 4,-64.604 4,-64.604l33.305,0c0,0 -4,40.186 -4,64.604c0,24.42 1,62.605 1,62.605z"/>
  <polygon id="svg_11" fill="#ffffff" stroke="#787474" stroke-width="9" stroke-linecap="round" stroke-linejoin="round" stroke-miterlimit="10" points="    106.883,219.566 73.578,219.566 76.578,185.398 109.883,185.398   "/>
  <line id="svg_12" fill="none" stroke="#787474" stroke-width="9" stroke-linecap="round" stroke-linejoin="round" stroke-miterlimit="10" y2="208.732" y1="197.188" x2="85.55" x1="97.356"/>
  <line id="svg_13" fill="none" stroke="#787474" stroke-width="9" stroke-linecap="round" stroke-linejoin="round" stroke-miterlimit="10" y2="208.732" y1="197.188" x2="97.356" x1="85.55"/>
  <path id="svg_14" fill="#ffffff" stroke="#787474" stroke-width="9" stroke-linecap="round" stroke-linejoin="round" stroke-miterlimit="10" d="m180.186,20c8.562,0 15.5,6.939 15.5,15.5c0,0 -0.549,10.433 1.668,23.833c3.582,21.667 35.332,62.667 51.332,126l33.305,0c-1.34,-5.006 -2.773,-10.687 -4.305,-15.848c-25.5,-85.984 -66.5,-118.234 -66.5,-133.984s-13.879,-31 -31,-31"/>
  <path id="svg_15" fill="#ffffff" stroke="#787474" stroke-width="9" stroke-linecap="round" stroke-linejoin="round" stroke-miterlimit="10" d="m254.686,346.709l33.305,0c0,0 1,-37.625 1,-62.605c0,-24.978 -4,-64.604 -4,-64.604l-33.305,0c0,0 4,40.186 4,64.604c0,24.419 -1,62.605 -1,62.605z"/>
  <polygon id="svg_16" fill="#ffffff" stroke="#787474" stroke-width="9" stroke-linecap="round" stroke-linejoin="round" stroke-miterlimit="10" points="    251.686,219.5 284.99,219.5 281.99,185.332 248.686,185.332   "/>
  <line id="svg_17" fill="none" stroke="#787474" stroke-width="9" stroke-linecap="round" stroke-linejoin="round" stroke-miterlimit="10" y2="208.666" y1="197.121" x2="273.02" x1="261.213"/>
  <line id="svg_18" fill="none" stroke="#787474" stroke-width="9" stroke-linecap="round" stroke-linejoin="round" stroke-miterlimit="10" y2="208.666" y1="197.121" x2="261.213" x1="273.02"/>
  <path id="svg_19" fill="#ffffff" stroke="#787474" stroke-width="9" stroke-linecap="round" stroke-linejoin="round" stroke-miterlimit="10" d="m4.5,288.066c0,0 24.883,14.576 29.883,27.576s7.5,31.066 7.5,31.066"/>
  <path id="svg_20" fill="#ffffff" stroke="#787474" stroke-width="9" stroke-linecap="round" stroke-linejoin="round" stroke-miterlimit="10" d="m352.146,288.066c0,0 -24.884,14.576 -29.884,27.576s-7.5,31.066 -7.5,31.066"/>
 </g>
</svg>