<svg width="24" height="24" xmlns="http://www.w3.org/2000/svg">

 <g>
  <title>background</title>
  <rect fill="none" id="canvas_background" height="402" width="582" y="-1" x="-1"/>
 </g>
 <g>
  <title>Layer 1</title>
  <path fill="#787474" id="svg_2" d="m22.9,1l-4.9,0c0,-0.6 -0.4,-1 -1,-1s-1,0.4 -1,1l-8,0c0,-0.6 -0.4,-1 -1,-1s-1,0.4 -1,1l-4.9,0c-0.6,0 -1.1,0.5 -1.1,1.1l0,20.8c0,0.6 0.5,1.1 1.1,1.1l21.8,0c0.6,0 1.1,-0.5 1.1,-1.1l0,-20.8c0,-0.6 -0.5,-1.1 -1.1,-1.1zm-0.9,21l-20,0l0,-14l20,0l0,14zm0,-15l-20,0l0,-4l4,0l0,1c0,0.6 0.4,1 1,1s1,-0.4 1,-1l0,-1l8,0l0,1c0,0.6 0.4,1 1,1s1,-0.4 1,-1l0,-1l4,0l0,4z"/>
  <path fill="#787474" id="svg_3" d="m10.3,17.7c0.4,0.4 1,0.4 1.4,0l4.1,-4.1c0.4,-0.4 0.4,-1 0,-1.4c-0.4,-0.4 -1,-0.4 -1.4,0l-3.4,3.5l-1.4,-1.4c-0.4,-0.4 -1,-0.4 -1.4,0c-0.4,0.4 -0.4,1 0,1.4l2.1,2z"/>
 </g>
</svg>