<svg width="100.40000000000002" height="100.40000000000002" xmlns="http://www.w3.org/2000/svg">

 <g>
  <title>background</title>
  <rect fill="none" id="canvas_background" height="402" width="582" y="-1" x="-1"/>
 </g>
 <g>
  <title>Layer 1</title>
  <path fill="#787474" stroke="#ffffff" id="svg_2" d="m56.6,16.5l0,-4.4l4.1,0c0.8,0 1.5,-0.7 1.5,-1.5l0,-7.2c0,-0.8 -0.7,-1.5 -1.5,-1.5l-17.5,0c-0.8,0 -1.5,0.7 -1.5,1.5l0,7.2c0,0.8 0.7,1.5 1.5,1.5l4.1,0l0,4.4c-9.7,1.1 -18.3,5.6 -24.8,12.2l-1.7,-1.7l2.8,-2.8c0.6,-0.6 0.6,-1.5 0,-2.1l-5.8,-5.8c-0.6,-0.6 -1.5,-0.6 -2.1,0l-7.9,7.7c-0.6,0.6 -0.6,1.5 0,2.1l5.8,5.8c0.3,0.3 0.7,0.4 1.1,0.4s0.8,-0.1 1.1,-0.4l2.9,-2.9l1.9,1.9c-6,7.1 -9.6,16.3 -9.6,26.3c0,22.6 18.4,41 41,41s41,-18.4 41,-41c-0.1,-21 -16,-38.4 -36.4,-40.7zm-41.9,12.3l-3.7,-3.8l5.6,-5.6l3.7,3.7l-2.2,2.2c-0.3,0.3 -0.7,0.7 -1.1,1.1l-2.3,2.4zm34.1,-19.7l-4.1,0l0,-4.2l14.5,0l0,4.2l-4.1,0c-0.8,0 -1.5,0.7 -1.5,1.5l0,5.7c-0.5,0 -1.1,0 -1.6,0s-1.1,0 -1.6,0l0,-5.7c-0.1,-0.9 -0.8,-1.5 -1.6,-1.5zm3.1,86.1c-20.9,0 -38,-17 -38,-38s17,-38 38,-38c0.8,0 1.6,0 2.4,0.1c0.4,0 0.8,0.1 1.2,0.1c19.3,1.8 34.4,18.1 34.4,37.8c0,21 -17,38 -38,38z"/>
  <path fill="#787474" stroke="#ffffff" id="svg_3" d="m73.5,32.6c-0.1,-0.1 -0.2,-0.2 -0.3,-0.3c-5.7,-4.9 -13.1,-7.8 -21.2,-7.8c-18.1,0 -32.7,14.7 -32.7,32.7s14.6,32.8 32.6,32.8s32.7,-14.7 32.7,-32.7c0.1,-9.9 -4.3,-18.7 -11.1,-24.7zm-21.6,54.4c-16.4,0 -29.7,-13.3 -29.7,-29.7s13.3,-29.7 29.7,-29.7c6.9,0 13.2,2.4 18.2,6.3l-16.2,18.6c-0.6,-0.2 -1.3,-0.4 -1.9,-0.4c-2.8,0 -5.1,2.3 -5.1,5.1s2.3,5.1 5.1,5.1s5,-2.3 5,-5.1c0,-1 -0.3,-2 -0.8,-2.8l16.3,-18.7c5.7,5.4 9.2,13 9.2,21.5c0,16.4 -13.4,29.8 -29.8,29.8zm2.1,-29.8c0,1.2 -0.9,2.1 -2.1,2.1s-2.1,-0.9 -2.1,-2.1c0,-1.1 0.9,-2.1 2.1,-2.1s2.1,1 2.1,2.1z"/>
 </g>
</svg>