<?xml version="1.0" ?><svg data-name="Layer 1" id="Layer_1" viewBox="0 0 256 256" xmlns="http://www.w3.org/2000/svg"><defs><style>.cls-1,.cls-2{fill:none;stroke:#000;stroke-linejoin:round;stroke-width:8px;}.cls-1{stroke-linecap:round;}</style></defs><title/><path class="cls-1" d="M83.2,141.88a10.53,10.53,0,0,0,0-14.84h0a10.53,10.53,0,0,0-14.85,0L39.85,155.52a52.52,52.52,0,0,0,74.27,74.27l.07-.06,59.66-59.66c3.13-3.13,2.35-9-1.74-13.12h0c-4.08-4.09-10-4.87-13.11-1.74l-28.86,28.86,46.59-46.59a10.37,10.37,0,0,0-.23-14.62h0a10.37,10.37,0,0,0-14.62-.24L118.7,165.8l1.29-1.29L164.5,120a10.53,10.53,0,0,0,0-14.84h0a10.53,10.53,0,0,0-14.85,0l-44.52,44.52-4.7,4.7,39-39c3.61-3.61,3.21-9.9-.87-14h0c-4.09-4.09-10.38-4.48-14-.88L64.38,160.7"/><path class="cls-1" d="M155.16,77.69a10.52,10.52,0,0,0,0-14.84h0a10.53,10.53,0,0,0-14.85,0L95.79,107.36l-4.71,4.7,39-39c3.6-3.61,3.21-9.9-.88-14h0c-4.08-4.09-10.37-4.48-14-.88L55,118.41"/><path class="cls-1" d="M170.22,89.22a10.59,10.59,0,0,0-3.07-8.66h0a10.37,10.37,0,0,0-14.62-.24l-6.78,6.78"/><path class="cls-2" d="M73.85,99.58a10.52,10.52,0,0,0,0-14.84h0a10.52,10.52,0,0,0-14.84,0L30.51,113.22a52.41,52.41,0,0,0-14.13,48.39"/><line class="cls-1" x1="121.47" x2="119.57" y1="9.72" y2="32.97"/><line class="cls-1" x1="163.72" x2="155.45" y1="18.03" y2="38.25"/><line class="cls-1" x1="225.72" x2="201.28" y1="134.46" y2="136.46"/><line class="cls-1" x1="225.29" x2="201.71" y1="93.95" y2="103.59"/><line class="cls-1" x1="187.48" x2="207.75" y1="65.86" y2="45.59"/></svg>