<svg width="48" height="48" xmlns="http://www.w3.org/2000/svg">

 <g>
  <title>background</title>
  <rect fill="none" id="canvas_background" height="402" width="582" y="-1" x="-1"/>
 </g>
 <g>
  <title>Layer 1</title>
  <path fill="#787474" id="svg_2" d="m32.416,45.913l-16.832,0c-2.681,0 -4.863,-2.182 -4.863,-4.862l0,-36.188c0.002,-2.682 2.183,-4.863 4.863,-4.863l16.832,0c2.681,0 4.861,2.182 4.861,4.863l0,36.188c0,2.68 -2.18,4.862 -4.861,4.862zm-16.832,-43.913c-1.578,0 -2.862,1.285 -2.863,2.863l0,36.188c0,1.578 1.284,2.862 2.863,2.862l16.832,0c1.578,0 2.861,-1.284 2.861,-2.862l0,-36.188c0,-1.579 -1.283,-2.863 -2.861,-2.863l-16.832,0z"/>
  <path fill="#787474" id="svg_3" d="m36.277,19.026l-24.555,0c-0.552,0 -1,-0.448 -1,-1s0.448,-1 1,-1l24.555,0c0.553,0 1,0.448 1,1s-0.447,1 -1,1z"/>
  <path fill="#787474" id="svg_4" d="m32.34,13.61c-0.553,0 -1,-0.448 -1,-1l0,-5.458c0,-0.552 0.447,-1 1,-1s1,0.448 1,1l0,5.458c0,0.552 -0.447,1 -1,1z"/>
  <path fill="#787474" id="svg_5" d="m32.34,29.738c-0.553,0 -1,-0.447 -1,-1l0,-5.458c0,-0.552 0.447,-1 1,-1s1,0.448 1,1l0,5.458c0,0.553 -0.447,1 -1,1z"/>
  <path fill="#787474" id="svg_7" d="m16.836,48c-0.552,0 -1,-0.447 -1,-1l0,-2.087c0,-0.553 0.448,-1 1,-1s1,0.447 1,1l0,2.087c0,0.553 -0.448,1 -1,1z"/>
  <path fill="#787474" id="svg_8" d="m31.164,48c-0.553,0 -1,-0.447 -1,-1l0,-2.087c0,-0.553 0.447,-1 1,-1s1,0.447 1,1l0,2.087c0,0.553 -0.447,1 -1,1z"/>
 </g>
</svg>