<svg width="64" height="64" xmlns="http://www.w3.org/2000/svg">

 <title/>
 <g>
  <title>background</title>
  <rect fill="none" id="canvas_background" height="402" width="582" y="-1" x="-1"/>
 </g>
 <g>
  <title>Layer 1</title>
  <polyline stroke-width="2px" stroke-linejoin="round" stroke="#787474" fill="none" id="svg_1" points="49 10 62 10 62 24 2 24 2 10 15 10" class="cls-1"/>
  <rect stroke-width="2px" stroke-linejoin="round" stroke="#787474" fill="#ffffff" id="svg_2" y="24" x="4" width="56" height="38" class="cls-1"/>
  <rect stroke-width="2px" stroke-linejoin="round" stroke="#787474" fill="#ffffff" id="svg_3" y="2" x="15" width="34" height="16" class="cls-1"/>
  <polyline stroke-width="2px" stroke-linejoin="round" stroke="#787474" fill="none" id="svg_4" points="26 6 19 6 19 14 25 14 25 10 22 10" class="cls-1"/>
  <path stroke-width="2px" stroke-linejoin="round" stroke="#787474" fill="#ffffff" id="svg_5" d="m29,5l0,2a3,3 0 0 0 3,3l0,0a3,3 0 0 0 3,-3l0,-2" class="cls-1"/>
  <line stroke-width="2px" stroke-linejoin="round" stroke="#787474" fill="none" id="svg_6" y2="15" y1="10" x2="32" x1="32" class="cls-1"/>
  <polyline stroke-width="2px" stroke-linejoin="round" stroke="#787474" fill="none" id="svg_7" points="39 15 39 6 42 12 45 6 45 15" class="cls-1"/>
  <polyline stroke-width="2px" stroke-linejoin="round" stroke="#787474" fill="none" id="svg_8" points="20 62 20 42 44 42 44 62" class="cls-1"/>
  <line stroke-width="2px" stroke-linejoin="round" stroke="#787474" fill="none" id="svg_9" y2="62" y1="42" x2="32" x1="32" class="cls-1"/>
  <rect stroke-width="2px" stroke-linejoin="round" stroke="#787474" fill="#ffffff" id="svg_10" y="28" x="8" width="48" height="10" class="cls-1"/>
  <line stroke-width="2px" stroke-linejoin="round" stroke="#787474" fill="none" id="svg_11" y2="38" y1="28" x2="24" x1="24" class="cls-1"/>
  <line stroke-width="2px" stroke-linejoin="round" stroke="#787474" fill="none" id="svg_12" y2="38" y1="28" x2="40" x1="40" class="cls-1"/>
  <line stroke-width="2px" stroke-linejoin="round" stroke="#787474" fill="none" id="svg_13" y2="31" y1="35" x2="15" x1="11" class="cls-1"/>
  <line stroke-width="2px" stroke-linejoin="round" stroke="#787474" fill="none" id="svg_14" y2="31" y1="35" x2="21" x1="17" class="cls-1"/>
  <line stroke-width="2px" stroke-linejoin="round" stroke="#787474" fill="none" id="svg_15" y2="31" y1="35" x2="31" x1="27" class="cls-1"/>
  <line stroke-width="2px" stroke-linejoin="round" stroke="#787474" fill="none" id="svg_16" y2="31" y1="35" x2="37" x1="33" class="cls-1"/>
  <line stroke-width="2px" stroke-linejoin="round" stroke="#787474" fill="none" id="svg_17" y2="31" y1="35" x2="47" x1="43" class="cls-1"/>
  <line stroke-width="2px" stroke-linejoin="round" stroke="#787474" fill="none" id="svg_18" y2="31" y1="35" x2="53" x1="49" class="cls-1"/>
  <line stroke-width="2px" stroke-linejoin="round" stroke="#787474" fill="none" id="svg_19" y2="53" y1="49" x2="28" x1="28" class="cls-1"/>
  <line stroke-width="2px" stroke-linejoin="round" stroke="#787474" fill="none" id="svg_20" y2="53" y1="49" x2="36" x1="36" class="cls-1"/>
 </g>
</svg>