<svg width="512" height="512" xmlns="http://www.w3.org/2000/svg">

 <g>
  <title>background</title>
  <rect fill="none" id="canvas_background" height="402" width="582" y="-1" x="-1"/>
 </g>
 <g>
  <title>Layer 1</title>
  <path fill="#04dcc4" id="svg_3" d="m503.660207,116.194l-108.68,-108.689c-10.01,-10.001 -26.223,-10.001 -36.232,0l-22.077,22.076c-10.001,-10.001 -26.223,-10.001 -36.224,0l-45.286,45.286c-10.001,10.001 -10.001,26.223 0,36.224l45.286,45.286l-144.913,144.914l-45.286,-45.286c-10.001,-10.001 -26.223,-10.001 -36.224,0l-45.286,45.286c-10.001,10.001 -10.001,26.223 0,36.224l-22.076,22.075c-10.001,10.001 -10.001,26.223 0,36.224l108.681,108.681c10.001,10.001 26.223,10.001 36.224,0l22.076,-22.076c10.001,10.001 26.223,10.001 36.224,0l45.294,-45.278c10.001,-10.001 10.001,-26.223 0,-36.224l-45.286,-45.286l144.913,-144.913l45.286,45.286c10.001,10.001 26.223,10.001 36.224,0l45.286,-45.286c10.001,-10.001 10.001,-26.223 0,-36.224l22.076,-22.076c10.001,-10.001 10.001,-26.223 0,-36.224zm-370.201,370.193l-108.681,-108.68l22.076,-22.076l108.681,108.68l-22.076,22.076zm103.586,-67.362l-45.286,45.286l-144.905,-144.913l45.286,-45.286l144.905,144.913zm-45.278,-81.51l-18.116,-18.116l144.913,-144.913l18.108,18.125l-144.905,144.904zm226.415,-99.618l-144.905,-144.914l45.286,-45.286l144.905,144.913l-45.286,45.287zm45.286,-81.519l-108.68,-108.681l22.076,-22.076l108.681,108.681l-22.077,22.076z"/>
 </g>
</svg>