<?xml version="1.0" ?><svg data-name="Layer 1" id="Layer_1" viewBox="0 0 512 512" xmlns="http://www.w3.org/2000/svg"><title/><path d="M415.24,327.83a6,6,0,0,0-6,6V448.34a6,6,0,1,0,11.92,0V333.79A6,6,0,0,0,415.24,327.83Z"/><path d="M96.76,327.83a6,6,0,0,0-6,6V448.34a6,6,0,0,0,11.93,0V333.79A6,6,0,0,0,96.76,327.83Z"/><path d="M471.76,269.52a37.66,37.66,0,0,0,0-53.17c-14.18-14.19-39-14.22-53.15,0l-6.73,6.71a87.49,87.49,0,0,0-21.75-4.3A69.28,69.28,0,0,0,421.2,161v-34a69.35,69.35,0,1,0-138.7,0v34A69.35,69.35,0,0,0,313,218.45H199A69.34,69.34,0,0,0,229.5,161v-34a69.35,69.35,0,0,0-138.7,0v34a69.31,69.31,0,0,0,31.06,57.74,87.58,87.58,0,0,0-21.75,4.3l-6.71-6.71a37.59,37.59,0,1,0-53.16,53.17l5.56,5.55a87,87,0,0,0-6.11,31.74V448.34a6,6,0,1,0,11.92,0V306.81a75,75,0,0,1,4-23.1,37.49,37.49,0,0,0,52.92-50.29,71.69,71.69,0,0,1,19.53-3H290.67l-38.89,38.89a6,6,0,0,0-1.74,4.22V448.34a6,6,0,1,0,11.92,0V275.94l45-44.94c.17-.18.11-.44.26-.63h76.76a71.7,71.7,0,0,1,19.54,3,37.51,37.51,0,0,0,52.93,50.29,74.71,74.71,0,0,1,4,23.1V448.34a6,6,0,0,0,11.93,0V306.81a87,87,0,0,0-6.12-31.74Zm-377.48.89c-9.7,9.69-26.61,9.68-36.28,0h0l-9.32-9.32A25.67,25.67,0,0,1,85,224.78l9.31,9.32A25.71,25.71,0,0,1,94.28,270.41ZM102.73,161v-34a57.43,57.43,0,1,1,114.85,0v34a57.43,57.43,0,1,1-114.85,0Zm191.69,0v-34a57.43,57.43,0,1,1,114.86,0v34a57.43,57.43,0,1,1-114.86,0ZM417.71,270.41a25.74,25.74,0,0,1,0-36.31l9.35-9.32a25.66,25.66,0,0,1,36.27,36.31l-9.3,9.32A25.72,25.72,0,0,1,417.71,270.41Z"/></svg>