<svg width="200" height="200" xmlns="http://www.w3.org/2000/svg">

 <g>
  <title>background</title>
  <rect fill="none" id="canvas_background" height="402" width="582" y="-1" x="-1"/>
 </g>
 <g>
  <title>Layer 1</title>
  <path stroke-miterlimit="10" stroke-linecap="round" stroke-width="4" stroke="#000000" fill="#ffffff" id="svg_1" d="m1059,201.7" class="st0"/>
  <path fill="#787474" id="svg_2" d="m154.5,77.2c1.1,-4 -0.1,-8.4 -3.3,-11.3l-7.7,-6.9c0.1,-0.9 0.2,-1.8 0.2,-2.7c0,-11.6 -9.1,-21 -20.3,-21c-11.2,0 -20.3,9.4 -20.3,21c0,1.2 0.1,2.3 0.3,3.4l-7.4,4.5c0.9,-2.4 1.5,-5.1 1.5,-7.8c0,-11.6 -9.1,-21 -20.3,-21s-20.3,9.4 -20.3,21c0,5.6 2.2,10.7 5.6,14.5l-1.5,0c-12.6,0 -22.9,10.7 -22.9,23.8l0,49c0,6.1 4.8,11 10.7,11c1.5,0 2.9,-0.3 4.2,-0.9l0,7.6c0,1.8 1.5,3.3 3.3,3.3c1.8,0 3.3,-1.5 3.3,-3.3l0,-17.8l0,-5l0,-41.5c0,-1.8 -1.5,-3.3 -3.3,-3.3c-1.8,0 -3.3,1.5 -3.3,3.3l0,41.5l0,5c0,2.5 -1.9,4.5 -4.2,4.5c-2.3,0 -4.2,-2 -4.2,-4.5l0,-49c0,-9.5 7.4,-17.3 16.4,-17.3l25,0c0.6,0 1.2,-0.2 1.7,-0.5l17.8,-10.8c1.3,2.5 3,4.7 5.2,6.5l-15.9,10.2c0,0 0,0 0,0c-0.1,0.1 -0.2,0.2 -0.3,0.2c-0.1,0.1 -0.1,0.1 -0.2,0.2c-0.1,0.1 -0.1,0.2 -0.2,0.2c-0.1,0.1 -0.2,0.2 -0.2,0.3c-0.1,0.1 -0.1,0.2 -0.1,0.2c-0.1,0.1 -0.1,0.2 -0.2,0.3c0,0.1 -0.1,0.2 -0.1,0.3c0,0.1 -0.1,0.2 -0.1,0.3c0,0.1 0,0.2 0,0.2c0,0.1 0,0.3 0,0.4c0,0 0,0 0,0l0,75.9c0,1.8 1.5,3.3 3.3,3.3s3.3,-1.5 3.3,-3.3l0,-73.9l17.1,-11c2,0.7 4.2,1.1 6.4,1.1c2.3,0 4.5,-0.4 6.6,-1.2l7.2,6.5c1.9,1.7 4.4,2.7 6.9,2.7c0.3,0 0.6,0 0.8,0c2.2,-0.2 4.3,-1 5.9,-2.5c2.7,3.1 4.4,7.2 4.4,11.8l0,49c0,2.5 -1.9,4.5 -4.2,4.5c-2.3,0 -4.2,-2 -4.2,-4.5l0,-5l0,-41.6c0,-1.8 -1.5,-3.3 -3.3,-3.3c-1.8,0 -3.3,1.5 -3.3,3.3l0,41.5l0,5l0,17.8c0,1.8 1.5,3.3 3.3,3.3c1.8,0 3.3,-1.5 3.3,-3.3l0,-7.6c1.3,0.6 2.7,0.9 4.2,0.9c5.9,0 10.7,-5 10.7,-11l0,-49c0.1,-6.9 -2.8,-13.1 -7.3,-17.5zm-91.1,-20.8c0,-8 6.2,-14.5 13.8,-14.5s13.8,6.4 13.8,14.5s-6.2,14.5 -13.8,14.5s-13.8,-6.5 -13.8,-14.5zm78.1,21.4l-5.6,-5c2.3,-1.9 4.2,-4.2 5.5,-6.9l5.4,4.9c1.8,1.6 2,4.6 0.4,6.5c-0.7,0.9 -1.8,1.5 -2.9,1.5c-0.9,0.1 -1.9,-0.2 -2.8,-1zm-31.9,-21.4c0,-8 6.2,-14.5 13.8,-14.5c7.6,0 13.8,6.5 13.8,14.5s-6.2,14.5 -13.8,14.5c-7.6,0 -13.8,-6.5 -13.8,-14.5z"/>
 </g>
</svg>