<svg width="25.999999999999996" height="25.999999999999996" xmlns="http://www.w3.org/2000/svg">

 <g>
  <title>background</title>
  <rect fill="none" id="canvas_background" height="402" width="582" y="-1" x="-1"/>
 </g>
 <g>
  <title>Layer 1</title>
  <path id="svg_1" fill="#787474" d="m25,13c0,-6.616699 -5.382812,-12 -12,-12s-12,5.383301 -12,12c0,3.383606 1.413208,6.43866 3.673645,8.622253c0.052918,0.068909 0.115601,0.124756 0.188965,0.171814c2.141235,1.982849 4.995666,3.205933 8.13739,3.205933s5.996155,-1.223084 8.13739,-3.205933c0.073364,-0.047058 0.136047,-0.102905 0.188965,-0.171814c2.260437,-2.183593 3.673645,-5.238647 3.673645,-8.622253zm-12,-10.5c5.790039,0 10.5,4.710449 10.5,10.5c0,2.454956 -0.853272,4.710815 -2.270264,6.500854c-0.650512,-2.097839 -2.507629,-3.740112 -5.028137,-4.495788c1.373596,-0.99408 2.272034,-2.604614 2.272034,-4.4245c0,-3.01416 -2.455078,-5.466308 -5.473633,-5.466308s-5.473633,2.452148 -5.473633,5.466308c0,1.819886 0.898438,3.43042 2.272034,4.4245c-2.520508,0.755676 -4.377625,2.397949 -5.028137,4.495788c-1.416993,-1.790039 -2.270264,-4.045898 -2.270264,-6.500854c0,-5.789551 4.709961,-10.5 10.5,-10.5zm-3.973633,8.080566c0,-2.187011 1.782227,-3.966308 3.973633,-3.966308s3.973633,1.779297 3.973633,3.966308s-1.782227,3.966309 -3.973633,3.966309s-3.973633,-1.779297 -3.973633,-3.966309zm-2.995605,10.251404c0.225464,-2.749939 3.141601,-4.785095 6.969238,-4.785095s6.743774,2.035156 6.969238,4.785095c-1.85614,1.653565 -4.293518,2.66803 -6.969238,2.66803s-5.113098,-1.014465 -6.969238,-2.66803z"/>
 </g>
</svg>