<svg width="128" height="128" xmlns="http://www.w3.org/2000/svg">
 <title/>

 <g>
  <title>background</title>
  <rect x="-1" y="-1" width="2.000003" height="2.000003" id="canvas_background" fill="none"/>
 </g>
 <g>
  <title>Layer 1</title>
  <path d="m13.38086,56.80029a0.50026,0.50026 0 0 1 -0.36523,-0.8418a5.54135,5.54135 0 0 1 6.48828,-1.15479l0.55566,0.27881a6.52253,6.52253 0 0 0 8.02051,-1.78613l2.10742,-2.67432a0.5,0.5 0 1 1 0.78516,0.61914l-2.10742,2.67432a7.52935,7.52935 0 0 1 -9.25488,2.06055l-0.55566,-0.27881a4.53134,4.53134 0 0 0 -5.30859,0.94482a0.50088,0.50088 0 0 1 -0.36525,0.15821z" id="svg_1" fill="#04dcc4" stroke="#04dcc4"/>
  <circle cx="44.62992" cy="134.525877" r="1.49959" transform="rotate(-70 44.629920959472656,134.52587890625) " id="svg_2" stroke="#7f7f7f" fill="#7f7f7f"/>
  <circle cx="52.56566" cy="132.119188" r="1.49959" transform="rotate(-70 52.565662384033224,132.1191864013672) " id="svg_3" stroke="#7f7f7f" fill="#7f7f7f"/>
  <path d="m123.43848,80.90674a0.99972,0.99972 0 0 1 -0.9707,-1.24268c0.83691,-3.34912 0.56836,-6.00293 -0.82227,-8.1123c-2.833,-4.29834 -9.75,-5.4165 -14.80078,-6.23291c-0.55371,-0.08936 -1.082,-0.1748 -1.57715,-0.26025c-10.38184,-1.78809 -33.99219,-12.73292 -41.55958,-18.52442c-6.23926,-4.77295 -8.15625,-2.46484 -10.01172,-0.23437c-0.17285,0.2085 -0.34082,0.41016 -0.50684,0.59961a19.40448,19.40448 0 0 1 -16.70506,6.76318a17.12779,17.12779 0 0 1 -13.418,-8.26416c-0.91892,-1.63086 -2.35154,-3.39844 -3.97556,-3.39844l-0.04,0c-1.86133,0 -3.55859,2.39282 -4.05566,3.36206c-8.26957,14.27194 -7.07328,34.36145 -7.05961,34.5636a0.96426,0.96426 0 0 1 -0.93355,1.02081a1.02883,1.02883 0 0 1 -1.0625,-0.95395c-0.05469,-0.84961 -1.25391,-20.98357 7.2998,-35.74333c0.06836,-0.1377 2.32813,-4.50423 5.76563,-4.577c2.11328,-0.03906 4.06543,1.495 5.80371,4.57991a15.29842,15.29842 0 0 0 11.88184,7.42253a17.42445,17.42445 0 0 0 14.99512,-6.09294c0.1543,-0.17676 0.31152,-0.366 0.47363,-0.56038c1.87207,-2.24951 5.00586,-6.01237 12.76367,-0.07487c7.41406,5.67334 30.52637,16.392 40.68457,18.14152c0.48828,0.084 1.00977,0.16842 1.55664,0.2568c5.416,0.87549 12.835,2.07469 16.15137,7.10642c1.69238,2.56689 2.05957,5.82958 1.0918,9.69823a0.99923,0.99923 0 0 1 -0.9688,0.75733z" id="svg_4" fill="#04dcc4" stroke="#04dcc4"/>
  <path d="m33.96191,94.13232c-9.3623,0 -16.91895,-0.707 -22.57812,-2.11475c-6.3877,-1.58838 -7.96973,-3.55322 -8.12988,-3.772a1.00064,1.00064 0 0 1 -0.12891,-0.93649l2.875,-7.75a1.00354,1.00354 0 0 1 1.08887,-0.64062c0.19531,0.02979 19.999,3.02441 54.79785,5.61621c34.66406,2.58057 60.99023,-5.50049 61.252,-5.58252a1.00006,1.00006 0 0 1 1.19141,1.40527c-6.95215,13.77637 -46.125,13.20508 -47.78613,13.17432a160.93816,160.93816 0 0 0 -28.00488,0.11963q-7.88971,0.4812 -14.57721,0.48095zm-28.73145,-6.75c1.73242,1.32129 10.50586,6.26416 43.14648,4.27637a162.39242,162.39242 0 0 1 28.28711,-0.12158c0.28906,0.00391 34.90723,0.51318 44.38281,-9.93164a190.07952,190.07952 0 0 1 -59.30859,4.92334c-30.959,-2.30518 -50.09277,-4.93213 -54.14453,-5.51514l-2.36328,6.36865z" id="svg_5" fill="#04dcc4" stroke="#04dcc4"/>
  <path d="m34.67773,87.7373a156.76861,156.76861 0 0 1 -29.46,-2.73437a1.00083,1.00083 0 0 1 -0.74414,-1.3291l1.52641,-4.11475a0.99989,0.99989 0 0 1 1.875,0.69531l-1.11523,3.00684a155.99289,155.99289 0 0 0 49.77148,0.88721a0.99985,0.99985 0 1 1 0.29688,1.97754a149.67285,149.67285 0 0 1 -22.1504,1.61132z" id="svg_6" fill="#04dcc4" stroke="#04dcc4"/>
  <path d="m94.75879,61.90527a0.99316,0.99316 0 0 1 -0.51953,-0.14648c-0.26367,-0.16064 -26.69629,-16.355 -34.75586,-22.73437c-2.91113,-2.30469 -5.11035,-3.356 -6.53613,-3.12061c-1.06836,0.17627 -1.68262,1.12549 -2.333,2.13037c-0.17969,0.27734 -0.35449,0.54639 -0.5332,0.793c-1.75684,2.42285 -2.41895,4.52734 -1.915,6.08594a4.30145,4.30145 0 0 0 2.49414,2.436a1.00011,1.00011 0 1 1 -0.627,1.89941a6.27385,6.27385 0 0 1 -3.77051,-3.7207c-0.71875,-2.22217 0.02148,-4.87158 2.19922,-7.87451c0.15918,-0.21924 0.31348,-0.459 0.47266,-0.70557c0.77832,-1.20166 1.74609,-2.69727 3.6875,-3.01709c2.06641,-0.33936 4.63574,0.78076 8.10352,3.52539c7.9043,6.25781 34.291,22.43408 34.55566,22.5957a1.00015,1.00015 0 0 1 -0.52247,1.85352z" id="svg_7" fill="#04dcc4" stroke="#04dcc4"/>
  <path d="m13.38086,57.30029a1.00025,1.00025 0 0 1 -0.72949,-1.68408a6.04336,6.04336 0 0 1 7.07617,-1.25977l0.55566,0.27881a6.0235,6.0235 0 0 0 7.4043,-1.64844l2.10742,-2.67432a0.9999,0.9999 0 1 1 1.57031,1.23828l-2.10742,2.67433a8.02935,8.02935 0 0 1 -9.87109,2.19775l-0.55567,-0.27885a4.03458,4.03458 0 0 0 -4.7207,0.84033a0.99753,0.99753 0 0 1 -0.72949,0.31596z" id="svg_8" fill="#04dcc4" stroke="#04dcc4"/>
  <path d="m35.79492,84.32324a1.00062,1.00062 0 0 1 -0.98242,-0.81689l-0.31543,-1.69287a7.96578,7.96578 0 0 0 -6.9043,-6.47705l-20.5957,-2.48829a0.99992,0.99992 0 1 1 0.24023,-1.98535l20.5957,2.48828a9.95892,9.95892 0 0 1 8.63086,8.09619l0.31543,1.69287a1.00072,1.00072 0 0 1 -0.98437,1.18311z" id="svg_9" fill="#04dcc4" stroke="#04dcc4"/>
  <path d="m40.36523,65.5874a5.97342,5.97342 0 0 1 -2.5332,-0.562l-18.14746,-8.48048a1.00005,1.00005 0 0 1 0.834,-1.81787a5.98272,5.98272 0 0 0 7.16895,-1.73877l2.10548,-2.67187a1.00035,1.00035 0 0 1 1.56836,1.24219l-2.10352,2.668a7.94826,7.94826 0 0 1 -4.00784,2.7114l13.42969,6.27588a4.01155,4.01155 0 0 0 4.52734,-0.80176l7.81543,-7.84961a0.99992,0.99992 0 0 0 -0.11816,-1.51221l-3.22363,-2.35693a0.999,0.999 0 0 1 0.77441,-1.8042a1.04745,1.04745 0 0 1 0.37891,0.17041l3.25,2.376a2.99974,2.99974 0 0 1 0.35645,4.53809l-7.81544,7.84957a6.01284,6.01284 0 0 1 -4.25977,1.76416z" id="svg_10" fill="#04dcc4" stroke="#04dcc4"/>
  <path d="m53.93555,85.91211a0.97222,0.97222 0 0 1 -0.18652,-0.01758a0.99469,0.99469 0 0 1 -0.79883,-1.14795a9.818,9.818 0 0 0 -5.4912,-10.74858l-5.44923,-2.5815a0.99947,0.99947 0 0 1 -0.53027,-0.6167c-0.16016,-0.53564 -0.16016,-0.53564 3.626,-4.82373l18.46091,-20.89794a0.99971,0.99971 0 1 1 1.498,1.32422c-6.40527,7.249 -17.78418,20.12842 -21,23.7749l4.26074,2.01807a11.806,11.806 0 0 1 6.59185,12.91454a1.00779,1.00779 0 0 1 -0.98145,0.80225z" id="svg_11" fill="#04dcc4" stroke="#04dcc4"/>
  <path d="m73.02441,87a0.99112,0.99112 0 0 1 -1,-0.9751l-0.002,-0.13086a0.99474,0.99474 0 0 1 0.18359,-0.58911l12.16021,-17.17834a7.68529,7.68529 0 0 1 6.5625,-3.12659l3.50879,0c1.33984,0 2.542,-1.6084 2.58789,-2.92529a1.01384,1.01384 0 0 1 1.0332,-0.96533a0.99969,0.99969 0 0 1 0.96484,1.03369c-0.07812,2.29293 -2.05663,4.85693 -4.58593,4.85693l-3.50879,0a5.75049,5.75049 0 0 0 -4.9248,2.27686l-12.00191,16.94433a0.98287,0.98287 0 0 1 -0.96294,0.77881l-0.01465,0z" id="svg_12" fill="#04dcc4" stroke="#04dcc4"/>
  <path d="m94.5752,71.395a6.413,6.413 0 0 1 -5.6875,-4.10107l-0.33691,-0.81836a1.00016,1.00016 0 0 1 1.84961,-0.76172l0.33691,0.81787c0.63969,1.55328 2.31738,3.07814 4.20019,2.84128l22.77344,-3.17578a0.99976,0.99976 0 1 1 0.27539,1.98047l-22.78613,3.17778a4.97288,4.97288 0 0 1 -0.625,0.03953z" id="svg_14" fill="#04dcc4" stroke="#04dcc4"/>
  <path d="m22.96973,57.24365a7.924,7.924 0 0 1 -3.5625,-0.8418l-0.5459,-0.25879a0.99989,0.99989 0 1 1 0.85742,-1.80664l0.56543,0.26858a6.04724,6.04724 0 0 0 7.44434,-1.65967l2.08008,-2.62842a1,1 0 0 1 1.5684,1.2412l-2.0791,2.627a8.0615,8.0615 0 0 1 -6.32817,3.05854z" id="svg_15" fill="#04dcc4" stroke="#04dcc4"/>
  <path d="m8.98242,59.26611a1.0009,1.0009 0 0 1 -0.668,-0.25586a1.03256,1.03256 0 0 1 -0.23633,-1.22314a3.95479,3.95479 0 0 1 2.1084,-2.37842a4.25973,4.25973 0 0 1 3.63184,-0.01562a1.00025,1.00025 0 0 1 -0.86523,1.80371a2.23311,2.23311 0 0 0 -1.90918,0.01855a1.9506,1.9506 0 0 0 -1.08982,1.28516a0.99845,0.99845 0 0 1 -0.97168,0.76562z" id="svg_16" fill="#04dcc4" stroke="#04dcc4"/>
  <path d="m42.43652,71.5127a0.99987,0.99987 0 0 1 -0.43848,-0.10156l-29.002,-14.186l-0.02246,-0.0083l0,-0.00053c-0.0166,-0.00635 -0.03223,-0.0127 -0.0459,-0.019a1.00018,1.00018 0 0 1 -0.09082,-1.77051a6.052,6.052 0 0 1 6.90137,-1.08105l18.94141,8.86816a4.01073,4.01073 0 0 0 4.52734,-0.80176l7.81543,-7.84961a0.99992,0.99992 0 0 0 -0.11816,-1.51221c0,-0.00049 -3.10352,-2.269 -3.24219,-2.36963a0.99994,0.99994 0 1 1 1.17383,-1.61914c0.13867,0.10059 3.248,2.374 3.248,2.374a2.99974,2.99974 0 0 1 0.35645,4.53809l-7.81534,7.84959a6.01562,6.01562 0 0 1 -6.793,1.20215l-18.96579,-8.87988a4.06169,4.06169 0 0 0 -3.58008,-0.02637l27.59087,13.49512a1,1 0 0 1 -0.44048,1.89844z" id="svg_17" fill="#04dcc4" stroke="#04dcc4"/>
  <ellipse fill="#04dcc4" stroke-width="NaN" cx="66.563242" cy="63.497472" id="svg_20" rx="6.205734" ry="5.531197" stroke="#04dcc4"/>
 </g>
</svg>